# Blender v2.93.3 OBJ File: 'template_ellipsoid.blend'
# www.blender.org
mtllib template_ellipsoid.mtl
o ellipsoid
v -0.147500 -0.147500 -0.076884
v -0.147500 -0.161837 -0.045000
v -0.176174 -0.147500 -0.045000
v -0.147500 -0.164438 0.032500
v -0.181376 -0.147500 0.032500
v -0.147500 -0.147500 0.076776
v -0.070000 -0.147500 -0.124942
v -0.070000 -0.149614 -0.122500
v -0.077241 -0.147500 -0.122500
v -0.070000 -0.184463 -0.045000
v -0.070000 -0.187064 0.032500
v -0.103966 -0.147500 0.110000
v -0.070000 -0.157416 0.110000
v -0.070000 -0.147500 0.122416
v 0.007500 -0.147500 -0.132452
v 0.007500 -0.156116 -0.122500
v 0.007500 -0.190965 -0.045000
v 0.007500 -0.193565 0.032500
v 0.007500 -0.163918 0.110000
v 0.007500 -0.147500 0.130557
v 0.076892 -0.147500 -0.122500
v 0.085000 -0.147500 -0.120261
v 0.085000 -0.181342 -0.045000
v 0.085000 -0.183943 0.032500
v 0.085000 -0.154295 0.110000
v 0.085000 -0.147500 0.118508
v 0.162500 -0.147500 -0.063004
v 0.162500 -0.155596 -0.045000
v 0.162500 -0.158196 0.032500
v 0.162500 -0.147500 0.060460
v 0.105455 -0.147500 0.110000
v 0.177485 -0.147500 -0.045000
v 0.182298 -0.147500 0.032500
v -0.225000 -0.070000 -0.091343
v -0.225000 -0.105690 -0.045000
v -0.254431 -0.070000 -0.045000
v -0.225000 -0.110144 0.032500
v -0.258104 -0.070000 0.032500
v -0.225000 -0.070000 0.093772
v -0.147500 -0.070000 -0.151076
v -0.147500 -0.112371 -0.122500
v -0.196980 -0.070000 -0.122500
v -0.212584 -0.070000 0.110000
v -0.147500 -0.125733 0.110000
v -0.147500 -0.070000 0.150746
v -0.070000 -0.070000 -0.177209
v -0.070000 -0.070000 0.179076
v 0.007500 -0.070000 -0.184719
v 0.007500 -0.070000 0.187216
v 0.085000 -0.145776 -0.122500
v 0.085000 -0.070000 -0.173605
v 0.085000 -0.070000 0.175168
v 0.162500 -0.070000 -0.143866
v 0.162500 -0.101681 -0.122500
v 0.162500 -0.115043 0.110000
v 0.162500 -0.070000 0.142931
v 0.196739 -0.070000 -0.122500
v 0.240000 -0.070000 -0.070522
v 0.240000 -0.089655 -0.045000
v 0.240000 -0.094109 0.032500
v 0.240000 -0.070000 0.069298
v 0.211180 -0.070000 0.110000
v 0.255336 -0.070000 -0.045000
v 0.258812 -0.070000 0.032500
v -0.225000 0.007500 -0.120261
v -0.272796 0.007500 -0.045000
v -0.276469 0.007500 0.032500
v -0.225000 -0.033000 0.110000
v -0.234597 0.007500 0.110000
v -0.225000 0.007500 0.118508
v -0.147500 0.007500 -0.166095
v -0.222987 0.007500 -0.122500
v -0.147500 0.007500 0.167027
v -0.070000 0.007500 -0.192229
v -0.091494 0.007500 0.187500
v -0.070000 -0.029900 0.187500
v -0.070000 0.007500 0.192666
v 0.007500 0.007500 -0.199738
v 0.007500 -0.068650 0.187500
v 0.007500 0.007500 0.198018
v 0.085000 0.007500 -0.188624
v 0.085000 -0.011300 0.187500
v 0.085000 0.007500 0.190097
v 0.162500 0.007500 -0.158886
v 0.162500 0.007500 0.159212
v 0.094495 0.007500 0.187500
v 0.220807 0.007500 -0.122500
v 0.240000 0.007500 -0.099440
v 0.240000 0.007500 0.103289
v 0.235248 0.007500 0.110000
v 0.272713 0.007500 -0.045000
v 0.276188 0.007500 0.032500
v -0.225000 0.085000 -0.077463
v -0.245616 0.085000 -0.045000
v -0.249289 0.085000 0.032500
v -0.225000 0.034865 0.110000
v -0.225000 0.085000 0.077456
v -0.147500 0.085000 -0.143866
v -0.184497 0.085000 -0.122500
v -0.200101 0.085000 0.110000
v -0.147500 0.085000 0.142931
v -0.070000 0.085000 -0.170000
v -0.070000 0.032770 0.187500
v -0.070000 0.085000 0.171260
v 0.007500 0.085000 -0.177510
v 0.007500 0.058953 0.187500
v 0.007500 0.085000 0.179401
v 0.085000 0.085000 -0.166395
v 0.085000 0.020203 0.187500
v 0.085000 0.085000 0.167353
v 0.162500 0.085000 -0.136657
v 0.162500 0.085000 0.135116
v 0.185186 0.085000 -0.122500
v 0.240000 0.085000 -0.056642
v 0.240000 0.085000 0.052982
v 0.199627 0.085000 0.110000
v 0.246996 0.085000 -0.045000
v 0.250471 0.085000 0.032500
v -0.225000 0.106970 -0.045000
v -0.225000 0.110884 0.032500
v -0.147500 0.112841 -0.122500
v -0.147500 0.162500 -0.049123
v -0.151208 0.162500 -0.045000
v -0.156409 0.162500 0.032500
v -0.147500 0.124583 0.110000
v -0.147500 0.162500 0.044145
v -0.070000 0.146894 -0.122500
v -0.070000 0.162500 -0.099440
v -0.070000 0.158636 0.110000
v -0.070000 0.162500 0.103289
v 0.007500 0.156679 -0.122500
v 0.007500 0.162500 -0.113899
v -0.039400 0.162500 0.110000
v 0.007500 0.162500 0.114926
v 0.085000 0.142197 -0.122500
v 0.085000 0.162500 -0.092500
v 0.085000 0.162500 0.095132
v 0.039189 0.162500 0.110000
v 0.085000 0.153939 0.110000
v 0.162500 0.103447 -0.122500
v 0.149293 0.162500 -0.045000
v 0.162500 0.155896 -0.045000
v 0.157121 0.162500 0.032500
v 0.162500 0.159811 0.032500
v 0.162500 0.115189 0.110000
v 0.240000 0.092879 -0.045000
v 0.240000 0.096793 0.032500
v -0.147500 0.164216 -0.045000
v -0.147500 0.166623 0.032500
v -0.070000 0.185155 -0.045000
v -0.070000 0.187562 0.032500
v 0.007500 0.191172 -0.045000
v 0.007500 0.193579 0.032500
v 0.007500 0.166141 0.110000
v 0.085000 0.182267 -0.045000
v 0.085000 0.184674 0.032500
vn -0.4149 -0.8298 -0.3731
vn -0.4470 -0.8940 -0.0300
vn -0.4231 -0.8463 0.3237
vn -0.2155 -0.7383 -0.6391
vn -0.2573 -0.8813 -0.3963
vn -0.2801 -0.9594 -0.0322
vn -0.2631 -0.9011 0.3447
vn -0.2224 -0.7618 0.6084
vn -0.0633 -0.7545 -0.6532
vn -0.0763 -0.9094 -0.4089
vn -0.0836 -0.9959 -0.0334
vn -0.0835 -0.9959 -0.0334
vn -0.0781 -0.9311 0.3562
vn -0.0654 -0.7797 0.6227
vn 0.0935 -0.7527 -0.6517
vn 0.1125 -0.9062 -0.4075
vn 0.1232 -0.9918 -0.0333
vn 0.1231 -0.9918 -0.0333
vn 0.1152 -0.9278 0.3549
vn 0.0966 -0.7777 0.6211
vn 0.2900 -0.8728 -0.3925
vn 0.2900 -0.8729 -0.3925
vn 0.3151 -0.9485 -0.0318
vn 0.2963 -0.8920 0.3412
vn 0.2964 -0.8920 0.3413
vn 0.2512 -0.7563 0.6040
vn 0.4420 -0.8181 -0.3679
vn 0.4751 -0.8794 -0.0295
vn 0.4505 -0.8338 0.3190
vn -0.6928 -0.5713 -0.4400
vn -0.7710 -0.6358 -0.0365
vn -0.7121 -0.5872 0.3847
vn -0.4319 -0.5043 -0.7478
vn -0.5614 -0.6556 -0.5049
vn -0.6498 -0.7588 -0.0436
vn -0.5823 -0.6800 0.4455
vn -0.4511 -0.5267 0.7205
vn -0.2692 -0.5385 -0.7985
vn -0.2693 -0.5385 -0.7984
vn -0.3683 -0.7366 -0.5673
vn -0.3858 -0.7717 0.5056
vn -0.2830 -0.5661 0.7743
vn -0.0801 -0.5573 -0.8264
vn -0.0845 -0.5881 0.8044
vn 0.1181 -0.5553 -0.8232
vn 0.1181 -0.5552 -0.8233
vn 0.1661 -0.7813 -0.6016
vn 0.1245 -0.5856 0.8010
vn 0.3032 -0.5328 -0.7901
vn 0.4110 -0.7223 -0.5562
vn 0.4297 -0.7553 0.4948
vn 0.3183 -0.5595 0.7653
vn 0.4595 -0.4966 -0.7364
vn 0.5912 -0.6390 -0.4921
vn 0.6786 -0.7333 -0.0421
vn 0.6121 -0.6615 0.4334
vn 0.4793 -0.5180 0.7085
vn 0.7125 -0.5559 -0.4281
vn 0.7879 -0.6148 -0.0353
vn 0.7312 -0.5706 0.3738
vn -0.8278 -0.1962 -0.5257
vn -0.9720 -0.2303 -0.0461
vn -0.8613 -0.2041 0.4653
vn -0.6553 -0.1553 0.7392
vn -0.4932 -0.1655 -0.8540
vn -0.7215 -0.2421 -0.6487
vn -0.7214 -0.2421 -0.6488
vn -0.7674 -0.2575 0.5872
vn -0.5224 -0.1753 0.8345
vn -0.3143 -0.1806 -0.9320
vn -0.3368 -0.1936 0.9215
vn -0.3368 -0.1936 0.9214
vn -0.2316 -0.1331 0.9637
vn -0.0947 -0.1894 -0.9773
vn -0.1022 -0.2045 0.9735
vn -0.1024 -0.2048 0.9734
vn -0.0683 -0.1365 0.9883
vn -0.0682 -0.1365 0.9883
vn 0.1394 -0.1884 -0.9721
vn 0.1504 -0.2035 0.9674
vn 0.1504 -0.2033 0.9675
vn 0.1007 -0.1361 0.9856
vn 0.3525 -0.1781 -0.9187
vn 0.3525 -0.1780 -0.9187
vn 0.3770 -0.1904 0.9064
vn 0.2615 -0.1321 0.9561
vn 0.5224 -0.1622 -0.8371
vn 0.7476 -0.2322 -0.6222
vn 0.7911 -0.2457 0.5602
vn 0.5520 -0.1714 0.8160
vn 0.8418 -0.1887 -0.5058
vn 0.8417 -0.1887 -0.5058
vn 0.9748 -0.2186 -0.0437
vn 0.8732 -0.1958 0.4464
vn -0.8094 0.2839 -0.5140
vn -0.9427 0.3306 -0.0447
vn -0.8407 0.2948 0.4542
vn -0.6461 0.2266 0.7288
vn -0.4854 0.2411 -0.8404
vn -0.4854 0.2410 -0.8404
vn -0.6975 0.3464 -0.6273
vn -0.6976 0.3464 -0.6272
vn -0.7388 0.3669 0.5653
vn -0.5131 0.2548 0.8196
vn -0.3083 0.2623 -0.9144
vn -0.3296 0.2803 0.9016
vn -0.2292 0.1950 0.9537
vn -0.0927 0.2745 -0.9571
vn -0.0998 0.2954 0.9501
vn -0.0675 0.1998 0.9775
vn 0.1366 0.2731 -0.9522
vn 0.1468 0.2937 0.9446
vn 0.0996 0.1993 0.9749
vn 0.3461 0.2587 -0.9019
vn 0.3692 0.2759 0.8875
vn 0.2588 0.1935 0.9463
vn 0.5144 0.2364 -0.8243
vn 0.7247 0.3331 -0.6032
vn 0.7641 0.3512 0.5411
vn 0.5426 0.2494 0.8021
vn 0.8245 0.2736 -0.4954
vn 0.8244 0.2736 -0.4954
vn 0.9483 0.3147 -0.0425
vn 0.8539 0.2834 0.4365
vn -0.6617 0.6209 -0.4202
vn -0.7288 0.6839 -0.0345
vn -0.6785 0.6367 0.3666
vn -0.4165 0.5535 -0.7212
vn -0.5289 0.7028 -0.4757
vn -0.5289 0.7029 -0.4757
vn -0.6008 0.7984 -0.0403
vn -0.5463 0.7259 0.4179
vn -0.4337 0.5763 0.6927
vn -0.2584 0.5881 -0.7664
vn -0.3420 0.7782 -0.5267
vn -0.3559 0.8099 0.4663
vn -0.2705 0.6157 0.7401
vn -0.0766 0.6070 -0.7910
vn -0.1040 0.8237 -0.5574
vn -0.1088 0.8615 0.4960
vn -0.0805 0.6375 0.7663
vn 0.1130 0.6049 -0.7882
vn 0.1529 0.8184 -0.5539
vn 0.1599 0.8555 0.4926
vn 0.1187 0.6350 0.7634
vn 0.1187 0.6350 0.7633
vn 0.2912 0.5824 -0.7589
vn 0.3826 0.7652 -0.5178
vn 0.3826 0.7651 -0.5178
vn 0.4467 0.8935 -0.0451
vn 0.4468 0.8935 -0.0451
vn 0.3975 0.7952 0.4578
vn 0.3976 0.7952 0.4579
vn 0.3976 0.7952 0.4578
vn 0.3046 0.6092 0.7322
vn 0.4437 0.5456 -0.7110
vn 0.5586 0.6869 -0.4649
vn 0.6304 0.7753 -0.0392
vn 0.5760 0.7084 0.4079
vn 0.4614 0.5674 0.6820
vn 0.6821 0.6056 -0.4099
vn 0.7473 0.6636 -0.0335
vn 0.7474 0.6636 -0.0335
vn 0.6985 0.6202 0.3571
vn -0.3929 0.8490 -0.3534
vn -0.4198 0.9072 -0.0282
vn -0.3999 0.8640 0.3059
vn -0.2421 0.8958 -0.3728
vn -0.2420 0.8958 -0.3728
vn -0.2607 0.9650 -0.0300
vn -0.2468 0.9135 0.3234
vn -0.0715 0.9209 -0.3832
vn -0.0774 0.9965 -0.0309
vn -0.0774 0.9965 -0.0310
vn -0.0730 0.9402 0.3328
vn -0.0623 0.8026 0.5932
vn 0.1055 0.9181 -0.3821
vn 0.1141 0.9930 -0.0308
vn 0.1077 0.9372 0.3318
vn 0.0920 0.8008 0.5919
vn 0.2731 0.8882 -0.3696
vn 0.2937 0.9554 -0.0297
vn 0.2784 0.9054 0.3205
usemtl Default_OBJ.004
s off
f 1//1 2//1 3//1
f 2//2 4//2 5//2
f 3//2 2//2 5//2
f 4//3 6//3 5//3
f 7//4 8//4 9//4
f 1//5 9//5 8//5
f 1//5 8//5 2//5
f 2//5 8//5 10//5
f 10//6 11//6 2//6
f 2//6 11//6 4//6
f 12//7 6//7 4//7
f 12//7 4//7 13//7
f 13//7 4//7 11//7
f 13//8 14//8 12//8
f 7//9 15//9 16//9
f 8//9 7//9 16//9
f 16//10 17//10 8//10
f 8//10 17//10 10//10
f 17//11 18//11 10//11
f 10//12 18//12 11//12
f 18//13 19//13 11//13
f 11//13 19//13 13//13
f 13//14 19//14 20//14
f 14//14 13//14 20//14
f 16//15 15//15 21//15
f 21//16 22//16 23//16
f 21//16 23//16 16//16
f 16//16 23//16 17//16
f 23//17 24//17 17//17
f 17//18 24//18 18//18
f 24//19 25//19 18//19
f 18//19 25//19 19//19
f 19//20 25//20 26//20
f 20//20 19//20 26//20
f 22//21 27//21 28//21
f 23//22 22//22 28//22
f 28//23 29//23 23//23
f 23//23 29//23 24//23
f 30//24 31//24 25//24
f 30//24 25//24 29//24
f 29//25 25//25 24//25
f 25//26 31//26 26//26
f 28//27 27//27 32//27
f 29//28 28//28 32//28
f 33//28 29//28 32//28
f 29//29 33//29 30//29
f 34//30 35//30 36//30
f 35//31 37//31 38//31
f 36//31 35//31 38//31
f 37//32 39//32 38//32
f 40//33 41//33 42//33
f 3//34 35//34 34//34
f 1//34 3//34 34//34
f 1//34 34//34 42//34
f 1//34 42//34 41//34
f 5//35 35//35 3//35
f 37//35 35//35 5//35
f 37//36 43//36 39//36
f 5//36 43//36 37//36
f 5//36 44//36 43//36
f 5//36 6//36 44//36
f 44//37 45//37 43//37
f 9//38 41//38 40//38
f 9//39 40//39 7//39
f 7//38 40//38 46//38
f 9//40 1//40 41//40
f 12//41 44//41 6//41
f 44//42 12//42 14//42
f 44//42 14//42 45//42
f 45//42 14//42 47//42
f 15//43 7//43 48//43
f 48//43 7//43 46//43
f 20//44 49//44 14//44
f 49//44 47//44 14//44
f 50//45 21//45 15//45
f 50//46 15//46 51//46
f 51//46 15//46 48//46
f 21//47 50//47 22//47
f 26//48 52//48 20//48
f 52//48 49//48 20//48
f 51//49 53//49 54//49
f 50//49 51//49 54//49
f 54//50 22//50 50//50
f 27//50 22//50 54//50
f 30//51 55//51 31//51
f 31//52 55//52 56//52
f 31//52 56//52 26//52
f 26//52 56//52 52//52
f 54//53 53//53 57//53
f 57//54 58//54 59//54
f 54//54 57//54 59//54
f 54//54 59//54 32//54
f 54//54 32//54 27//54
f 32//55 60//55 33//55
f 59//55 60//55 32//55
f 61//56 62//56 55//56
f 60//56 61//56 55//56
f 60//56 55//56 30//56
f 60//56 30//56 33//56
f 55//57 62//57 56//57
f 59//58 58//58 63//58
f 60//59 59//59 63//59
f 64//59 60//59 63//59
f 60//60 64//60 61//60
f 65//61 34//61 36//61
f 66//61 65//61 36//61
f 36//62 38//62 66//62
f 38//62 67//62 66//62
f 39//63 68//63 69//63
f 39//63 69//63 38//63
f 38//63 69//63 67//63
f 68//64 70//64 69//64
f 71//65 40//65 42//65
f 72//65 71//65 42//65
f 42//66 65//66 72//66
f 34//67 65//67 42//67
f 43//68 68//68 39//68
f 68//69 43//69 45//69
f 68//69 45//69 70//69
f 70//69 45//69 73//69
f 46//70 40//70 74//70
f 74//70 40//70 71//70
f 75//71 47//71 76//71
f 75//72 73//72 47//72
f 73//71 45//71 47//71
f 76//73 77//73 75//73
f 48//74 46//74 78//74
f 78//74 46//74 74//74
f 49//75 76//75 47//75
f 79//76 76//76 49//76
f 76//77 79//77 80//77
f 77//78 76//78 80//78
f 51//79 48//79 81//79
f 81//79 48//79 78//79
f 52//80 79//80 49//80
f 82//81 79//81 52//81
f 79//82 82//82 83//82
f 80//82 79//82 83//82
f 53//83 51//83 84//83
f 84//84 51//84 81//84
f 82//85 85//85 86//85
f 82//85 52//85 85//85
f 52//85 56//85 85//85
f 82//86 86//86 83//86
f 87//87 57//87 53//87
f 84//87 87//87 53//87
f 58//88 87//88 88//88
f 57//88 87//88 58//88
f 89//89 62//89 61//89
f 90//89 62//89 89//89
f 62//90 90//90 85//90
f 56//90 62//90 85//90
f 91//91 63//91 58//91
f 88//92 91//92 58//92
f 63//93 91//93 64//93
f 64//93 91//93 92//93
f 64//94 92//94 89//94
f 61//94 64//94 89//94
f 93//95 65//95 66//95
f 94//95 93//95 66//95
f 66//96 67//96 94//96
f 67//96 95//96 94//96
f 96//97 97//97 95//97
f 96//97 95//97 69//97
f 69//97 95//97 67//97
f 69//98 70//98 96//98
f 98//99 71//99 72//99
f 99//100 98//100 72//100
f 72//101 93//101 99//101
f 65//102 93//102 72//102
f 96//103 100//103 97//103
f 100//104 96//104 70//104
f 100//104 70//104 101//104
f 101//104 70//104 73//104
f 74//105 71//105 102//105
f 102//105 71//105 98//105
f 103//106 73//106 75//106
f 103//106 104//106 73//106
f 104//106 101//106 73//106
f 75//107 77//107 103//107
f 78//108 74//108 105//108
f 105//108 74//108 102//108
f 104//109 106//109 107//109
f 103//109 106//109 104//109
f 106//110 103//110 77//110
f 80//110 106//110 77//110
f 81//111 78//111 108//111
f 108//111 78//111 105//111
f 107//112 109//112 110//112
f 106//112 109//112 107//112
f 109//113 106//113 80//113
f 83//113 109//113 80//113
f 84//114 81//114 111//114
f 111//114 81//114 108//114
f 86//115 110//115 109//115
f 86//115 85//115 110//115
f 85//115 112//115 110//115
f 86//116 109//116 83//116
f 113//117 87//117 84//117
f 111//117 113//117 84//117
f 88//118 113//118 114//118
f 87//118 113//118 88//118
f 115//119 90//119 89//119
f 116//119 90//119 115//119
f 90//120 116//120 112//120
f 85//120 90//120 112//120
f 117//121 91//121 88//121
f 114//122 117//122 88//122
f 91//123 117//123 92//123
f 92//123 117//123 118//123
f 92//124 118//124 115//124
f 89//124 92//124 115//124
f 93//125 94//125 119//125
f 94//126 95//126 120//126
f 119//126 94//126 120//126
f 95//127 97//127 120//127
f 98//128 99//128 121//128
f 122//129 119//129 123//129
f 121//130 119//130 122//130
f 121//129 93//129 119//129
f 121//130 99//130 93//130
f 120//131 123//131 119//131
f 124//131 123//131 120//131
f 124//132 125//132 126//132
f 120//132 125//132 124//132
f 120//132 100//132 125//132
f 120//132 97//132 100//132
f 100//133 101//133 125//133
f 102//134 98//134 121//134
f 127//134 102//134 121//134
f 121//135 128//135 127//135
f 122//135 128//135 121//135
f 126//136 129//136 130//136
f 125//136 129//136 126//136
f 129//137 125//137 101//137
f 104//137 129//137 101//137
f 105//138 102//138 127//138
f 131//138 105//138 127//138
f 127//139 132//139 131//139
f 128//139 132//139 127//139
f 129//140 133//140 130//140
f 133//141 129//141 104//141
f 133//141 104//141 134//141
f 134//141 104//141 107//141
f 108//142 105//142 131//142
f 135//142 108//142 131//142
f 131//143 136//143 135//143
f 132//143 136//143 131//143
f 137//144 138//144 139//144
f 139//145 138//145 134//145
f 139//146 134//146 110//146
f 110//146 134//146 107//146
f 111//147 108//147 135//147
f 140//147 111//147 135//147
f 141//148 135//148 136//148
f 141//149 142//149 135//149
f 142//148 140//148 135//148
f 142//150 143//150 144//150
f 141//151 143//151 142//151
f 137//152 144//152 143//152
f 137//153 139//153 144//153
f 139//154 145//154 144//154
f 145//155 139//155 110//155
f 112//155 145//155 110//155
f 113//156 111//156 140//156
f 114//157 113//157 140//157
f 114//157 140//157 146//157
f 146//157 140//157 142//157
f 146//158 142//158 147//158
f 142//158 144//158 147//158
f 116//159 115//159 147//159
f 116//159 147//159 145//159
f 145//159 147//159 144//159
f 116//160 145//160 112//160
f 117//161 114//161 146//161
f 118//162 117//162 146//162
f 147//163 118//163 146//163
f 118//164 147//164 115//164
f 122//165 123//165 148//165
f 123//166 124//166 149//166
f 148//166 123//166 149//166
f 124//167 126//167 149//167
f 128//168 122//168 148//168
f 150//169 128//169 148//169
f 150//170 148//170 151//170
f 148//170 149//170 151//170
f 151//171 149//171 126//171
f 130//171 151//171 126//171
f 132//172 128//172 150//172
f 152//172 132//172 150//172
f 152//173 150//173 153//173
f 150//174 151//174 153//174
f 130//175 133//175 154//175
f 130//175 154//175 151//175
f 151//175 154//175 153//175
f 133//176 134//176 154//176
f 136//177 132//177 152//177
f 155//177 136//177 152//177
f 155//178 152//178 156//178
f 152//178 153//178 156//178
f 138//179 137//179 156//179
f 138//179 156//179 154//179
f 154//179 156//179 153//179
f 138//180 154//180 134//180
f 141//181 136//181 155//181
f 143//182 141//182 155//182
f 156//182 143//182 155//182
f 143//183 156//183 137//183
